<svg width="67" height="76" fill="none" xmlns="http://www.w3.org/2000/svg"><path d="M39.5 4v-.5H13C6.096 3.5.5 9.096.5 16v14c0 6.904 5.596 12.5 12.5 12.5h37a6.5 6.5 0 016.5 6.5v7a6.5 6.5 0 01-6.5 6.5H27.5v10H54c6.904 0 12.5-5.596 12.5-12.5V46c0-6.904-5.596-12.5-12.5-12.5H17a6.5 6.5 0 01-6.5-6.5v-7a6.5 6.5 0 016.5-6.5h22.5V4z" fill="#C4C4C4" stroke="#000"/><path d="M25.5 63v-.5H15a4.5 4.5 0 00-4.5 4.5v1a4.5 4.5 0 004.5 4.5h10.5V63zM43 3.5h-.5v10H53A4.5 4.5 0 0057.5 9V8A4.5 4.5 0 0053 3.5H43z" fill="#F34167" stroke="#000"/><path fill="#fff" stroke="#000" stroke-linejoin="round" d="M35.5.5h7v16h-7zm-11 59h7v16h-7z"/></svg>