<svg width="63" height="62" fill="none" xmlns="http://www.w3.org/2000/svg"><rect x="9.346" y="18.485" width="48" height="9" rx="3.5" transform="rotate(45.93 9.346 18.485)" fill="#fff" stroke="#000"/><rect x="23.05" y="45.581" width="22.823" height="9" rx="1.5" transform="rotate(135.93 23.05 45.58)" fill="#C4C4C4" stroke="#000"/><path d="M26.347 3.305l.372-1.639-1.207 1.169-14.37 13.91-.36.349.349.359 32.69 33.769.348.359.36-.348 14.369-13.91 1.378-1.334-1.854.49-4.724 1.253 3.724-7.194.74-1.428-1.419.756-7.907 4.218 4.133-7.406.799-1.43-1.461.74-7.354 3.73 4.644-7.948.88-1.506-1.544.81-8.089 4.247 1.831-5.073.437-1.21-1.14.598-2.852 1.498 2.893-4.277.976-1.443-1.593.706-6.376 2.826 4.72-8.077.808-1.382-1.45.677-6.88 3.208 1.243-2.573.795-1.648-1.523 1.014-4.824 3.214 5.334-8.48.904-1.437-1.538.718-7.226 3.37.964-4.245z" fill="#F34167" stroke="#000"/></svg>