<svg width="60" height="79" fill="none" xmlns="http://www.w3.org/2000/svg"><path d="M2.012 3.847L3 4c-.988-.153-.988-.152-.988-.151v.002l-.002.009-.005.033a22.165 22.165 0 00-.083.598 68.93 68.93 0 00-.212 1.8c-.165 1.555-.36 3.79-.482 6.524-.244 5.464-.198 12.937.97 20.954 2.33 15.993 9.168 34.416 27.37 43.133l.438.21.436-.215c17.696-8.72 24.53-27.14 26.984-43.12 1.23-8.015 1.372-15.485 1.206-20.948a111.547 111.547 0 00-.381-6.522 74.34 74.34 0 00-.254-2.397l-.004-.033-.002-.008v-.003l-.99.134.99-.135-.225-1.652-1.351.976h0l-.004.003-.014.01-.062.044a37.19 37.19 0 01-1.184.792c-.803.515-1.93 1.2-3.23 1.879C49.275 7.3 46.096 8.564 43.525 8.5c-2.642-.065-5.823-1.563-8.45-3.159a43.111 43.111 0 01-4.115-2.853l-.243-.193-.06-.05-.015-.011-.003-.003h0L30 1.7l-.639.53h0v.001l-.003.003-.015.011-.06.05a37.513 37.513 0 01-1.164.897 43.111 43.111 0 01-3.195 2.149c-2.626 1.596-5.806 3.094-8.449 3.16-2.571.063-5.75-1.2-8.396-2.584a42.82 42.82 0 01-4.167-2.5 23.417 23.417 0 01-.247-.171l-.061-.044-.015-.01-.003-.002h0L2.26 2.232l-.25 1.614z" fill="#C4C4C4" stroke="#000" stroke-width="2"/><mask id="a" maskUnits="userSpaceOnUse" x="7.172" y="11.908" width="42.426" height="42.426" fill="#000"><path fill="#fff" d="M7.172 11.908h42.426v42.426H7.172z"/><path d="M16.915 24.085l-2.864 2.864 16 24.102L42 31l-2.864-2.864-9.085 17.186-13.136-21.237z"/></mask><path d="M16.915 24.085l-2.864 2.864 16 24.102L42 31l-2.864-2.864-9.085 17.186-13.136-21.237z" fill="#C4C4C4"/><path d="M14.05 26.95l-1.413-1.415a2 2 0 00-.252 2.52l1.666-1.106zm2.865-2.865l1.701-1.052a2 2 0 00-3.115-.363l1.414 1.415zM30.051 51.05l-1.666 1.106a2 2 0 003.384-.082l-1.718-1.024zM42 31l1.718 1.024a2 2 0 00-.304-2.438L42 31zm-2.864-2.864l1.414-1.415a2 2 0 00-3.183.48l1.769.935zM30.05 45.322l-1.701 1.052 1.837 2.97 1.632-3.087-1.768-.935zM15.465 28.363L18.33 25.5l-2.828-2.828-2.864 2.864 2.828 2.828zm22.256 1.187l2.865 2.864 2.828-2.828-2.864-2.865-2.829 2.829zM31.82 46.257l9.085-17.187-3.537-1.87-9.084 17.187 3.536 1.87zm-16.605-21.12L28.35 46.374l3.402-2.104-13.136-21.237-3.402 2.104zm16.503 24.808l-16-24.102-3.332 2.212 16 24.102 3.332-2.212zm8.565-19.969l-11.95 20.051 3.437 2.048 11.95-20.051-3.437-2.048z" fill="#000" mask="url(#a)"/></svg>