<svg width="80" height="80" fill="none" xmlns="http://www.w3.org/2000/svg"><circle cx="36" cy="43.814" r="35.5" fill="#C4C4C4" stroke="#000"/><mask id="a" fill="#fff"><path fill-rule="evenodd" clip-rule="evenodd" d="M36.5 64.814c11.874 0 21.5-9.626 21.5-21.5s-9.626-21.5-21.5-21.5S15 31.44 15 43.314s9.626 21.5 21.5 21.5zm0-10.488c6.082 0 11.012-4.93 11.012-11.012 0-6.082-4.93-11.012-11.012-11.012-6.082 0-11.012 4.93-11.012 11.012 0 6.082 4.93 11.012 11.012 11.012z"/></mask><path fill-rule="evenodd" clip-rule="evenodd" d="M36.5 64.814c11.874 0 21.5-9.626 21.5-21.5s-9.626-21.5-21.5-21.5S15 31.44 15 43.314s9.626 21.5 21.5 21.5zm0-10.488c6.082 0 11.012-4.93 11.012-11.012 0-6.082-4.93-11.012-11.012-11.012-6.082 0-11.012 4.93-11.012 11.012 0 6.082 4.93 11.012 11.012 11.012z" fill="#fff"/><path d="M57 43.314c0 11.322-9.178 20.5-20.5 20.5v2c12.426 0 22.5-10.074 22.5-22.5h-2zm-20.5-20.5c11.322 0 20.5 9.178 20.5 20.5h2c0-12.426-10.074-22.5-22.5-22.5v2zM16 43.314c0-11.322 9.178-20.5 20.5-20.5v-2c-12.426 0-22.5 10.074-22.5 22.5h2zm20.5 20.5c-11.322 0-20.5-9.178-20.5-20.5h-2c0 12.426 10.074 22.5 22.5 22.5v-2zm10.012-20.5c0 5.53-4.482 10.012-10.012 10.012v2c6.634 0 12.012-5.378 12.012-12.012h-2zM36.5 33.302c5.53 0 10.012 4.482 10.012 10.012h2c0-6.634-5.378-12.012-12.012-12.012v2zM26.488 43.314c0-5.53 4.482-10.012 10.012-10.012v-2c-6.634 0-12.012 5.378-12.012 12.012h2zM36.5 53.326c-5.53 0-10.012-4.483-10.012-10.012h-2c0 6.634 5.378 12.012 12.012 12.012v-2z" fill="#000" mask="url(#a)"/><path d="M74.86 32.634l-5.113 5.113c-1.184 1.184-3.206.91-4.073-.55-2.248-3.787-6.1-9.824-9.878-13.601-3.778-3.778-9.815-7.63-13.602-9.879-1.459-.866-1.733-2.889-.55-4.072l5.113-5.113c.781-.781 1.968-.952 2.913-.41 3.472 1.993 10.717 6.39 14.963 10.636 4.246 4.246 8.643 11.492 10.636 14.963.542.945.371 2.132-.41 2.913z" fill="#F34167" stroke="#000"/><circle cx="25.186" cy="54.628" r="2" transform="rotate(45 25.186 54.628)" fill="#000" stroke="#000"/><circle cx="47.814" cy="32" r="2" transform="rotate(45 47.814 32)" fill="#000" stroke="#000"/><circle cx="47.814" cy="54.628" r="2" transform="rotate(45 47.814 54.628)" fill="#000" stroke="#000"/><circle cx="25.186" cy="32" r="2" transform="rotate(45 25.186 32)" fill="#000" stroke="#000"/></svg>