<svg width="59" height="71" fill="none" xmlns="http://www.w3.org/2000/svg"><path d="M24.67 50.906l.84.543-.542.84-9.691 14.993-.938 1.45-.791-1.535-1.966-3.818a4 4 0 00-3.347-2.163l-4.287-.225-1.726-.09.938-1.451 9.691-14.993.543-.84.84.543 10.437 6.746zm9.787 0l-.84.543.543.84 9.691 14.993.938 1.45.791-1.535 1.965-3.818a4 4 0 013.348-2.163l4.287-.225 1.726-.09-.938-1.451-9.691-14.993-.543-.84-.84.543-10.437 6.746z" fill="#C4C4C4" stroke="#000" stroke-width="2"/><path d="M13.941 53.765l.132.992-.132-.992a1.68 1.68 0 01-1.883-1.347l-1.2-6.508a3.66 3.66 0 00-1.921-2.586l-.46.889.46-.889-5.92-3.063a1.647 1.647 0 01-.747-2.163l2.986-6.37a3.635 3.635 0 00-.02-3.131l-3.071-6.33a1.646 1.646 0 01.717-2.173l5.88-3.14a3.66 3.66 0 001.886-2.612l1.113-6.522a1.68 1.68 0 011.865-1.372l7.04.844a3.701 3.701 0 002.982-.982l-.687-.727.687.727 5.13-4.848a1.704 1.704 0 012.334 0l.685-.726-.686.726 4.833 4.567a3.702 3.702 0 003.078.969l6.609-.968c.899-.132 1.73.46 1.901 1.323l1.365 6.891a3.661 3.661 0 001.87 2.516l6.241 3.334a1.646 1.646 0 01.717 2.173l-2.892 5.963a3.635 3.635 0 00.021 3.218l2.971 5.925a1.646 1.646 0 01-.687 2.181L50.94 42.97a3.66 3.66 0 00-1.836 2.54l-1.273 6.909a1.682 1.682 0 01-1.883 1.347l-6.621-.88a3.701 3.701 0 00-3.065 1.008l-4.772 4.63a1.704 1.704 0 01-2.332.03l-5.195-4.78-.677.735.677-.735a3.702 3.702 0 00-2.995-.943l-7.028.935zm16.451-9.47c8.204 0 14.872-6.59 14.872-14.737 0-8.148-6.668-14.736-14.872-14.736-8.203 0-14.87 6.588-14.87 14.736s6.667 14.736 14.87 14.736z" fill="#C4C4C4" stroke="#000" stroke-width="2"/></svg>