<svg width="73" height="73" fill="none" xmlns="http://www.w3.org/2000/svg"><path d="M8.923 59.127l.707-.707-.707.707 4.95 4.95a3 3 0 004.242 0l2.886-2.886A28.853 28.853 0 0030 65.15V69a3 3 0 003 3h7a3 3 0 003-3v-3.622a28.833 28.833 0 009.39-3.795l2.495 2.494a3 3 0 004.242 0l4.95-4.95a3 3 0 000-4.242l-2.494-2.494A28.835 28.835 0 0065.378 43H69a3 3 0 003-3v-7a3 3 0 00-3-3h-3.85a28.853 28.853 0 00-3.959-8.999l2.886-2.886a3 3 0 000-4.242l-4.95-4.95-.707.707.707-.707a3 3 0 00-4.242 0l.676.676-.676-.676-3.115 3.115A28.822 28.822 0 0043 8.622V4a3 3 0 00-3-3h-7a3 3 0 00-3 3v4.85a28.844 28.844 0 00-8.39 3.567l-3.495-3.494a3 3 0 00-4.242 0l-4.95 4.95a3 3 0 000 4.242l3.494 3.494A28.841 28.841 0 008.85 30H4a3 3 0 00-3 3v7a3 3 0 003 3h4.622c.66 3.14 1.83 6.094 3.416 8.77l-3.115 3.115.707.707-.707-.707a3 3 0 000 4.242zM53 37c0 8.837-7.163 16-16 16s-16-7.163-16-16 7.163-16 16-16 16 7.163 16 16z" fill="#C4C4C4" stroke="#000" stroke-width="2"/></svg>