<svg width="71" height="71" fill="none" xmlns="http://www.w3.org/2000/svg"><circle cx="35.5" cy="35.5" r="35" fill="#C4C4C4" stroke="#000"/><path d="M34.427 5.532h-.002c-7.292.382-14.581 3.443-20.267 9.365h0l-.006.006C10.601 18.72 7.94 23.49 6.52 28.453a.5.5 0 00.481.638h1.525A.5.5 0 009 28.745c1.382-4.27 3.446-8.144 6.525-11.27l.01-.011c5.163-5.552 11.03-8.3 17.867-8.3h1.035c6.497.37 11.845 2.938 16.832 8.3 2.92 3.14 5.157 7.022 6.534 11.281a.5.5 0 00.476.346H64a.5.5 0 00.482-.633c-1.421-5.158-4.086-9.74-7.634-13.555-6.22-6.689-14.407-9.754-22.42-9.371z" fill="#F34167" stroke="#000" stroke-linejoin="round"/><path d="M46.194 16.312a.5.5 0 00-.842-.536l-16.754 22.59a.5.5 0 00.133.719l3.374 2.148a.5.5 0 00.709-.184l13.38-24.737z" fill="#F34167" stroke="#000" stroke-linejoin="round"/><rect x="13.5" y="43.5" width="43" height="5" rx="2.5" fill="#fff" stroke="#000"/><rect x="20.5" y="52.5" width="29" height="5" rx="2.5" fill="#fff" stroke="#000" stroke-linejoin="round"/><rect x="30.5" y="61.5" width="10" height="5" rx="2.5" fill="#fff" stroke="#000" stroke-linejoin="round"/></svg>