<svg width="69" height="71" fill="none" xmlns="http://www.w3.org/2000/svg"><path d="M4.394 22.5h5.212c2.224 0 3.894-1.75 3.894-3.916V4.542C13.5 2.25 11.709.5 9.606.5H4.394C2.147.5.5 2.4.5 4.542v13.916C.5 20.75 2.291 22.5 4.394 22.5z" fill="#C6CDC9" stroke="#231F20" stroke-miterlimit="10"/><path d="M8.337 8.717L4.922 5.301c-.253-.253-.253-.759 0-1.138l.126-.127c.253-.253.76-.253 1.139 0l3.415 3.416c.253.253.253.759 0 1.138l-.126.127c-.253.38-.76.38-1.139 0zm0 5.06l-3.415-3.415c-.253-.254-.253-.76 0-1.14l.126-.126c.253-.253.76-.253 1.139 0l3.415 3.416c.253.253.253.76 0 1.139l-.126.126c-.253.38-.76.38-1.139 0zm0 5.187l-3.415-3.416c-.253-.253-.253-.759 0-1.138l.126-.127c.253-.253.76-.253 1.139 0L9.602 17.7c.253.253.253.759 0 1.138l-.126.127c-.253.253-.76.253-1.139 0z" fill="#231F20"/><path d="M4.394 70.5h5.212c2.224 0 3.894-1.75 3.894-3.916V52.542c0-2.291-1.791-4.042-3.894-4.042H4.394C2.147 48.5.5 50.4.5 52.542v13.916c0 2.291 1.791 4.042 3.894 4.042z" fill="#C6CDC9" stroke="#231F20" stroke-miterlimit="10"/><path d="M8.337 56.717L4.922 53.3c-.253-.253-.253-.759 0-1.138l.126-.127c.253-.253.76-.253 1.139 0l3.415 3.416c.253.253.253.759 0 1.138l-.126.127c-.253.38-.76.38-1.139 0zm0 5.06l-3.415-3.416c-.253-.252-.253-.759 0-1.138l.126-.127c.253-.253.76-.253 1.139 0l3.415 3.416c.253.253.253.76 0 1.139l-.126.126c-.253.38-.76.38-1.139 0zm0 5.187l-3.415-3.416c-.253-.253-.253-.759 0-1.138l.126-.127c.253-.253.76-.253 1.139 0L9.602 65.7c.253.253.253.759 0 1.138l-.126.127c-.253.253-.76.253-1.139 0z" fill="#231F20"/><path d="M59.394 22.5h5.212c2.224 0 3.894-1.75 3.894-3.916V4.542C68.5 2.25 66.709.5 64.606.5h-5.212C57.147.5 55.5 2.4 55.5 4.542v13.916c0 2.292 1.791 4.042 3.894 4.042z" fill="#C6CDC9" stroke="#231F20" stroke-miterlimit="10"/><path d="M63.337 8.717l-3.415-3.416c-.253-.253-.253-.759 0-1.138l.126-.127c.253-.253.76-.253 1.139 0l3.415 3.416c.253.253.253.759 0 1.138l-.126.127c-.253.38-.76.38-1.139 0zm0 5.06l-3.415-3.415c-.253-.254-.253-.76 0-1.14l.126-.126c.253-.253.76-.253 1.139 0l3.415 3.416c.253.253.253.76 0 1.139l-.126.126c-.253.38-.76.38-1.139 0zm0 5.187l-3.415-3.416c-.253-.253-.253-.759 0-1.138l.126-.127c.253-.253.76-.253 1.139 0l3.415 3.416c.253.253.253.759 0 1.138l-.126.127c-.253.253-.76.253-1.139 0z" fill="#231F20"/><path d="M59.394 70.5h5.212c2.224 0 3.894-1.75 3.894-3.916V52.542c0-2.291-1.791-4.042-3.894-4.042h-5.212c-2.247 0-3.894 1.9-3.894 4.042v13.916c0 2.291 1.791 4.042 3.894 4.042z" fill="#C6CDC9" stroke="#231F20" stroke-miterlimit="10"/><path d="M63.337 56.717L59.922 53.3c-.253-.253-.253-.759 0-1.138l.126-.127c.253-.253.76-.253 1.139 0l3.415 3.416c.253.253.253.759 0 1.138l-.126.127c-.253.38-.76.38-1.139 0zm0 5.06l-3.415-3.416c-.253-.252-.253-.759 0-1.138l.126-.127c.253-.253.76-.253 1.139 0l3.415 3.416c.253.253.253.76 0 1.139l-.126.126c-.253.38-.76.38-1.139 0zm0 5.187l-3.415-3.416c-.253-.253-.253-.759 0-1.138l.126-.127c.253-.253.76-.253 1.139 0l3.415 3.416c.253.253.253.759 0 1.138l-.126.127c-.253.253-.76.253-1.139 0z" fill="#231F20"/><circle cx="34.5" cy="35.5" r="10" fill="#F34167" stroke="#000"/><mask id="a" maskUnits="userSpaceOnUse" x="13" y="45" width="43" height="15" fill="#000"><path fill="#fff" d="M13 45h43v15H13z"/><path fill-rule="evenodd" clip-rule="evenodd" d="M36 46h-3v10H14v3h41v-3H36V46z"/></mask><path fill-rule="evenodd" clip-rule="evenodd" d="M36 46h-3v10H14v3h41v-3H36V46z" fill="#fff"/><path d="M33 46v-1h-1v1h1zm3 0h1v-1h-1v1zm-3 10v1h1v-1h-1zm-19 0v-1h-1v1h1zm0 3h-1v1h1v-1zm41 0v1h1v-1h-1zm0-3h1v-1h-1v1zm-19 0h-1v1h1v-1zm-3-9h3v-2h-3v2zm1 9V46h-2v10h2zm-20 1h19v-2H14v2zm1 2v-3h-2v3h2zm40-1H14v2h41v-2zm-1-2v3h2v-3h-2zm-18 1h19v-2H36v2zm-1-11v10h2V46h-2z" fill="#000" mask="url(#a)"/><path d="M32.5 15v-.5h-19v-4h42v4h-19v11h-4V15z" fill="#fff" stroke="#000"/></svg>