<svg width="93" height="93" fill="none" xmlns="http://www.w3.org/2000/svg"><rect x="67.841" y="9.939" width="21.523" height="81.886" rx="9" transform="rotate(45 67.841 9.94)" fill="#C4C4C4" stroke="#000"/><path fill="#fff" stroke="#000" d="M28.573 30.134l34.293 34.292-9.537 9.537-34.293-34.292z"/><path d="M34.148 35.646a.5.5 0 00-.707 0l-8.795 8.795a.5.5 0 000 .707l3.649 3.649a.5.5 0 00.707 0l8.795-8.795a.5.5 0 000-.707l-3.648-3.649zm19.129 19.225l4.243 4.243-9.504 9.504-4.243-4.243zm-9.911-9.884l4.243 4.243-9.477 9.476-4.243-4.242z" fill="#C4C4C4" stroke="#000" stroke-linejoin="round"/><path fill="#F34167" stroke="#000" stroke-linejoin="round" d="M18.42 57.317L39.679 69.59l-1.697 2.94-21.257-12.274zm-4.406 5L35.271 74.59l-1.697 2.94-21.257-12.274zm9-10L44.271 64.59l-1.697 2.94-21.257-12.274z"/><path stroke="#000" d="M63.073 15.415l14.512 14.512"/></svg>