<svg width="80" height="72" fill="none" xmlns="http://www.w3.org/2000/svg"><circle cx="36" cy="36" r="35.5" fill="#C4C4C4" stroke="#000"/><mask id="a" fill="#fff"><path fill-rule="evenodd" clip-rule="evenodd" d="M36.5 57C48.374 57 58 47.374 58 35.5S48.374 14 36.5 14 15 23.626 15 35.5 24.626 57 36.5 57zm0-10.488c6.082 0 11.012-4.93 11.012-11.012 0-6.082-4.93-11.012-11.012-11.012-6.082 0-11.012 4.93-11.012 11.012 0 6.082 4.93 11.012 11.012 11.012z"/></mask><path fill-rule="evenodd" clip-rule="evenodd" d="M36.5 57C48.374 57 58 47.374 58 35.5S48.374 14 36.5 14 15 23.626 15 35.5 24.626 57 36.5 57zm0-10.488c6.082 0 11.012-4.93 11.012-11.012 0-6.082-4.93-11.012-11.012-11.012-6.082 0-11.012 4.93-11.012 11.012 0 6.082 4.93 11.012 11.012 11.012z" fill="#fff"/><path d="M57 35.5C57 46.822 47.822 56 36.5 56v2C48.926 58 59 47.926 59 35.5h-2zM36.5 15C47.822 15 57 24.178 57 35.5h2C59 23.074 48.926 13 36.5 13v2zM16 35.5C16 24.178 25.178 15 36.5 15v-2C24.074 13 14 23.074 14 35.5h2zM36.5 56C25.178 56 16 46.822 16 35.5h-2C14 47.926 24.074 58 36.5 58v-2zm10.012-20.5c0 5.53-4.482 10.012-10.012 10.012v2c6.634 0 12.012-5.378 12.012-12.012h-2zM36.5 25.488c5.53 0 10.012 4.482 10.012 10.012h2c0-6.634-5.378-12.012-12.012-12.012v2zM26.488 35.5c0-5.53 4.482-10.012 10.012-10.012v-2c-6.634 0-12.012 5.378-12.012 12.012h2zM36.5 45.512c-5.53 0-10.012-4.482-10.012-10.012h-2c0 6.634 5.378 12.012 12.012 12.012v-2z" fill="#000" mask="url(#a)"/><circle cx="25.186" cy="46.814" r="2" transform="rotate(45 25.186 46.814)" fill="#000" stroke="#000"/><circle cx="47.814" cy="24.186" r="2" transform="rotate(45 47.814 24.186)" fill="#000" stroke="#000"/><circle cx="47.814" cy="46.814" r="2" transform="rotate(45 47.814 46.814)" fill="#000" stroke="#000"/><circle cx="25.186" cy="24.186" r="2" transform="rotate(45 25.186 24.186)" fill="#000" stroke="#000"/><path d="M67.5 54.5l-.411.284.411.596.411-.596-.411-.284zm0 0l.412.284h0l.002-.003.006-.01.025-.036.097-.142a149.492 149.492 0 001.674-2.522 153.259 153.259 0 003.966-6.438c1.442-2.486 2.89-5.18 3.979-7.659 1.08-2.457 1.839-4.773 1.839-6.474 0-6.627-5.373-12-12-12s-12 5.373-12 12c0 1.701.76 4.017 1.84 6.474 1.088 2.478 2.535 5.173 3.977 7.659a153.259 153.259 0 005.64 8.96l.098.142.025.037.006.009.002.002h0l.412-.283z" fill="#F34167" stroke="#000"/></svg>