<svg width="77" height="77" fill="none" xmlns="http://www.w3.org/2000/svg"><circle cx="36" cy="36.814" r="35.5" fill="#C4C4C4" stroke="#000"/><mask id="a" fill="#fff"><path fill-rule="evenodd" clip-rule="evenodd" d="M36.5 57.814c11.874 0 21.5-9.626 21.5-21.5s-9.626-21.5-21.5-21.5S15 24.44 15 36.314s9.626 21.5 21.5 21.5zm0-10.488c6.082 0 11.012-4.93 11.012-11.012 0-6.082-4.93-11.012-11.012-11.012-6.082 0-11.012 4.93-11.012 11.012 0 6.082 4.93 11.012 11.012 11.012z"/></mask><path fill-rule="evenodd" clip-rule="evenodd" d="M36.5 57.814c11.874 0 21.5-9.626 21.5-21.5s-9.626-21.5-21.5-21.5S15 24.44 15 36.314s9.626 21.5 21.5 21.5zm0-10.488c6.082 0 11.012-4.93 11.012-11.012 0-6.082-4.93-11.012-11.012-11.012-6.082 0-11.012 4.93-11.012 11.012 0 6.082 4.93 11.012 11.012 11.012z" fill="#fff"/><path d="M57 36.314c0 11.322-9.178 20.5-20.5 20.5v2c12.426 0 22.5-10.074 22.5-22.5h-2zm-20.5-20.5c11.322 0 20.5 9.178 20.5 20.5h2c0-12.426-10.074-22.5-22.5-22.5v2zM16 36.314c0-11.322 9.178-20.5 20.5-20.5v-2c-12.426 0-22.5 10.074-22.5 22.5h2zm20.5 20.5c-11.322 0-20.5-9.178-20.5-20.5h-2c0 12.426 10.074 22.5 22.5 22.5v-2zm10.012-20.5c0 5.53-4.482 10.012-10.012 10.012v2c6.634 0 12.012-5.378 12.012-12.012h-2zM36.5 26.302c5.53 0 10.012 4.482 10.012 10.012h2c0-6.634-5.378-12.012-12.012-12.012v2zM26.488 36.314c0-5.53 4.482-10.012 10.012-10.012v-2c-6.634 0-12.012 5.378-12.012 12.012h2zM36.5 46.326c-5.53 0-10.012-4.483-10.012-10.012h-2c0 6.634 5.378 12.012 12.012 12.012v-2z" fill="#000" mask="url(#a)"/><circle cx="25.186" cy="47.628" r="2" transform="rotate(45 25.186 47.628)" fill="#000" stroke="#000"/><circle cx="47.814" cy="25" r="2" transform="rotate(45 47.814 25)" fill="#000" stroke="#000"/><circle cx="47.814" cy="47.628" r="2" transform="rotate(45 47.814 47.628)" fill="#000" stroke="#000"/><circle cx="25.186" cy="25" r="2" transform="rotate(45 25.186 25)" fill="#000" stroke="#000"/><path d="M15.867 65.017a.5.5 0 00-.133.906l.266-.424-.266.424h.002l.004.004.017.01.065.04a48.583 48.583 0 001.088.66c.683.404 1.57.911 2.366 1.31.795.397 1.931.902 2.861 1.304a142.555 142.555 0 001.541.656l.096.04.026.01.006.003.002.001h0L24 69.5l-.192.462a.5.5 0 00.355.011l14.5-5a.5.5 0 00.26-.204l9.398-14.84L63.64 45.48a.5.5 0 00.308-.256l6.5-13.001a.5.5 0 00.053-.24L70 32l.5-.015h0v-.011l-.001-.024-.004-.093-.015-.34a39.48 39.48 0 00-.076-1.152c-.073-.911-.2-2.067-.417-2.982-.195-.824-.583-1.854-.913-2.661a39.747 39.747 0 00-.57-1.323l-.037-.081-.01-.022-.002-.006-.001-.001h0v-.001l-.454.21.454-.21a.5.5 0 00-.91.005l-7.408 16.42-15.286 4.809a.5.5 0 00-.263.195L34.19 59.942l-18.323 5.075z" fill="#F34167" stroke="#000" stroke-linejoin="round"/></svg>