<svg width="87" height="70" fill="none" xmlns="http://www.w3.org/2000/svg"><path d="M75 19.076s2.75-.5 4.318 1.067c.615.615 1.231 1.25 1.863 1.88 1.178 1.176 2.378 2.373 3.504 3.633.346.447.693.894 1.039 1.49.52 1.043.346 1.64-.866 2.086-.692.15-1.385.298-1.904.596-.52.15-.693.447-.693 1.043 0 3.141-.158 6.146-.324 9.276l-.022.41c0 .595.173.893.693 1.042.346.15.649.26.952.373.303.111.606.223.952.372 1.212.447 1.558 1.192.693 2.086-1.04 1.341-2.251 2.533-3.636 3.725-.52.522-1.082.969-1.645 1.416C77.738 51.307 77 52.076 75 52.076v-33z" fill="#fff" stroke="#000" stroke-miterlimit="10"/><path d="M70.026.998c1.872-.318 3.66.908 3.993 2.79C75.105 9.918 77.5 24.614 77.5 35s-2.395 25.081-3.48 31.213c-.334 1.88-2.122 3.107-3.993 2.789l-19.001-3.23c-1.974-.336-3.265-2.25-2.874-4.204C49.283 55.909 51.5 43.702 51.5 35c0-8.701-2.217-20.909-3.348-26.568-.39-1.954.9-3.868 2.874-4.204l19-3.23z" fill="#C4C4C4" stroke="#000" stroke-linejoin="round"/><path d="M59.598 40.72a3.5 3.5 0 00-3.227 2.937L53.95 58.72a3.5 3.5 0 002.663 3.964l10.078 2.343a3.5 3.5 0 004.259-2.923l2.533-18.07a3.5 3.5 0 00-3.695-3.979l-10.19.666zm0-11.971a3.5 3.5 0 01-3.227-2.938L53.95 10.75a3.5 3.5 0 012.663-3.965l10.078-2.342a3.5 3.5 0 014.259 2.923l2.533 18.07a3.5 3.5 0 01-3.695 3.979l-10.19-.666z" fill="#F34167" stroke="#000" stroke-linejoin="round"/><path d="M12 19.076s-2.75-.5-4.318 1.067c-.615.615-1.231 1.25-1.863 1.88C4.64 23.2 3.44 24.397 2.315 25.657c-.346.447-.693.894-1.039 1.49-.52 1.043-.346 1.64.866 2.086.692.15 1.385.298 1.904.596.52.15.693.447.693 1.043 0 3.141.159 6.146.324 9.276l.022.41c0 .595-.173.893-.693 1.042-.346.15-.649.26-.952.373-.303.111-.606.223-.952.372-1.212.447-1.558 1.192-.693 2.086 1.04 1.341 2.251 2.533 3.636 3.725.52.522 1.082.969 1.645 1.416C9.262 51.307 10 52.076 12 52.076v-33z" fill="#fff" stroke="#000" stroke-miterlimit="10"/><path d="M16.974.998c-1.872-.318-3.66.908-3.993 2.79C11.895 9.918 9.5 24.614 9.5 35s2.395 25.081 3.48 31.213c.334 1.88 2.122 3.107 3.994 2.789l19-3.23c1.974-.336 3.265-2.25 2.874-4.204C37.717 55.909 35.5 43.702 35.5 35c0-8.701 2.217-20.909 3.348-26.568.39-1.954-.9-3.868-2.874-4.204l-19-3.23z" fill="#C4C4C4" stroke="#000" stroke-linejoin="round"/><path d="M27.402 40.72a3.5 3.5 0 013.227 2.937l2.42 15.062a3.5 3.5 0 01-2.663 3.964l-10.078 2.343a3.5 3.5 0 01-4.259-2.923l-2.532-18.07a3.5 3.5 0 013.694-3.979l10.19.666zm0-11.971a3.5 3.5 0 003.227-2.938l2.42-15.061a3.5 3.5 0 00-2.663-3.965L20.308 4.443a3.5 3.5 0 00-4.259 2.923l-2.532 18.07a3.5 3.5 0 003.694 3.979l10.19-.666z" fill="#F34167" stroke="#000" stroke-linejoin="round"/></svg>