<svg width="67" height="63" fill="none" xmlns="http://www.w3.org/2000/svg"><mask id="a" maskUnits="userSpaceOnUse" x="8" y="14" width="59" height="33" fill="#000"><path fill="#fff" d="M8 14h59v33H8z"/><path d="M10 16h55L54 45H18l-8-29z"/></mask><path d="M10 16h55L54 45H18l-8-29z" fill="#C4C4C4"/><path d="M10 16v-2a2 2 0 00-1.928 2.532L10 16zm55 0l1.87.71A2 2 0 0065 14v2zM54 45v2a2 2 0 001.87-1.29L54 45zm-36 0l-1.928.532A2 2 0 0018 47v-2zm-8-27h55v-4H10v4zm53.13-2.71l-11 29 3.74 1.42 11-29-3.74-1.42zM54 43H18v4h36v-4zm-34.072 1.468l-8-29-3.856 1.064 8 29 3.856-1.064z" fill="#000" mask="url(#a)"/><path d="M54 51H19.5C15.5 42 8.444 15.5 8 13.5c-.444-2-7.5-2-7.5-2" stroke="#000" stroke-width="2"/><circle cx="25" cy="58" r="4" fill="#C4C4C4" stroke="#000" stroke-width="2"/><circle cx="46" cy="58" r="4" fill="#C4C4C4" stroke="#000" stroke-width="2"/></svg>