<svg width="34" height="34" fill="none" xmlns="http://www.w3.org/2000/svg"><g clip-path="url(#clip0)"><path d="M2.125 2.314C-.547 5.089 0 8.037 0 16.994c0 7.437-1.298 14.893 5.494 16.648 2.12.545 20.911.545 23.03-.003 2.827-.73 5.128-3.023 5.442-7.023.044-.558.044-18.678-.001-19.248-.335-4.26-2.957-6.715-6.412-7.212-.792-.115-.95-.149-5.014-.156C8.127.007 4.97-.634 2.125 2.314z" fill="url(#paint0_linear)"/><path d="M16.997 4.447c-5.144 0-10.028-.458-11.894 4.33-.77 1.978-.659 4.546-.659 8.224 0 3.227-.103 6.26.659 8.223 1.861 4.79 6.786 4.332 11.891 4.332 4.926 0 10.005.513 11.893-4.332.772-1.998.66-4.528.66-8.223 0-4.904.27-8.07-2.109-10.448-2.408-2.408-5.665-2.106-10.446-2.106h.005zm-1.125 2.262c10.73-.017 12.096-1.21 11.342 15.361-.267 5.86-4.73 5.218-10.215 5.218-10.002 0-10.29-.287-10.29-10.293 0-10.122.794-10.28 9.163-10.289v.003zm7.826 2.084a1.506 1.506 0 100 3.012 1.506 1.506 0 000-3.012zm-6.7 1.76a6.447 6.447 0 000 12.894 6.444 6.444 0 006.444-6.446 6.446 6.446 0 00-6.445-6.447zm0 2.263c5.531 0 5.538 8.37 0 8.37-5.531 0-5.54-8.37 0-8.37z" fill="#fff"/></g><defs><linearGradient id="paint0_linear" x1="2.19" y1="31.828" x2="33.79" y2="4.48" gradientUnits="userSpaceOnUse"><stop stop-color="#FD5"/><stop offset=".5" stop-color="#FF543E"/><stop offset="1" stop-color="#C837AB"/></linearGradient><clipPath id="clip0"><path fill="#fff" d="M0 0h34v34H0z"/></clipPath></defs></svg>