<svg width="50" height="42" fill="none" xmlns="http://www.w3.org/2000/svg"><path d="M23.3 9.5h-8.25c.25.5.5.9.75 1.3.9 1.55 1.8 3.1 2.7 4.7.85 1.5 1.75 3 2.65 4.5.7 1.25 1.45 2.5 2.15 3.75.05.1.05.2.05.3v16.9c0 .05 0 .05-.05.2C15.5 27.7 7.75 14.3 0 .8h23.3v8.7zM4.95 3.65c5.15 9 10.3 17.9 15.45 26.8.05 0 .05-.05.1-.05v-.25c0-1.25-.05-2.45 0-3.7.05-1.15-.2-2.15-.8-3.15-2.05-3.35-3.95-6.8-5.9-10.2-.95-1.7-1.95-3.35-2.9-5.05-.25-.45-.5-.9-.8-1.45h10c.3 0 .45-.05.4-.4-.05-.65 0-1.3 0-1.95v-.6H4.95zM26.7.8H50c-7.75 13.5-15.5 26.9-23.3 40.4 0-.15-.05-.2-.05-.2V24.1c0-.1 0-.2.05-.3.7-1.25 1.45-2.5 2.15-3.75.85-1.5 1.75-3 2.65-4.5.9-1.55 1.8-3.1 2.7-4.7.25-.4.5-.85.75-1.3H26.7V.8zm2.8 2.85V6.2c0 .35.1.4.4.4h10c-.3.5-.55 1-.8 1.45-.95 1.7-1.95 3.35-2.9 5.05-1.95 3.4-3.9 6.85-5.9 10.2-.6 1-.85 2-.8 3.15.05 1.25 0 2.45 0 3.7v.25c.05 0 .05.05.1.05 5.15-8.9 10.25-17.8 15.45-26.8H29.5z" fill="#017862"/></svg>