<svg width="34" height="34" fill="none" xmlns="http://www.w3.org/2000/svg"><g clip-path="url(#clip0)"><path d="M28.333 18.831v-.874l4.562-5.703A5.054 5.054 0 0034 9.104c0-1.116-.905-2.02-2.022-2.021h-4.97a1.9 1.9 0 00-1.757 1.165 36.353 36.353 0 01-3.769 7.518 1.472 1.472 0 01-1.65.113V8.633a1.558 1.558 0 00-1.549-1.55h-6.241a.708.708 0 00-.502 1.21l.388.388c.527.524.823 1.237.822 1.98v5.384a.467.467 0 01-.245.132 1.079 1.079 0 01-.67-.383 61.846 61.846 0 01-4.828-8.323.708.708 0 00-.632-.388H1.842A1.842 1.842 0 000 8.925v.361a8.013 8.013 0 001.203 4.229c3.8 6.113 9.01 13.401 12.255 13.401h4.634a1.743 1.743 0 001.741-1.74v-1.213a1.295 1.295 0 012.212-.916l2.94 2.941c.595.597 1.403.93 2.245.928h5.054a1.713 1.713 0 001.21-2.922l-5.16-5.163z" fill="#01579B"/></g><defs><clipPath id="clip0"><path fill="#fff" d="M0 0h34v34H0z"/></clipPath></defs></svg>